<svg id="svg" version="1.1" xmlns="http://www.w3.org/2000/svg" xmlns:xlink="http://www.w3.org/1999/xlink" width="400" height="276.8759571209801" viewBox="0, 0, 400,276.8759571209801"><g id="svgg"><path id="path1" d="M0.136 138.504 C 0.136 214.758,0.169 256.097,0.208 230.370 C 0.275 185.996,0.303 183.600,0.763 183.741 C 1.514 183.973,6.860 186.256,8.864 187.202 C 9.855 187.669,11.818 188.559,13.227 189.178 C 18.277 191.398,20.938 192.579,22.438 193.266 C 23.276 193.650,25.021 194.402,26.316 194.938 C 27.611 195.473,29.169 196.138,29.778 196.416 C 30.875 196.915,31.662 197.239,40.305 200.738 C 47.426 203.621,56.180 206.832,61.773 208.612 C 63.677 209.218,66.108 210.019,67.175 210.392 C 77.012 213.829,96.853 218.248,108.839 219.672 C 122.682 221.316,144.087 220.915,153.047 218.843 C 153.657 218.702,156.399 218.193,159.141 217.711 C 164.040 216.850,175.138 214.177,179.224 212.872 C 180.367 212.508,182.548 211.842,184.072 211.392 C 191.985 209.057,210.801 201.946,217.867 198.622 C 218.476 198.335,220.097 197.606,221.468 197.001 C 232.385 192.186,247.305 184.936,259.557 178.494 C 262.375 177.011,266.053 175.086,267.729 174.215 C 269.404 173.345,272.583 171.672,274.792 170.499 C 283.809 165.710,300.753 157.133,306.787 154.304 C 308.463 153.518,310.145 152.711,310.526 152.509 C 312.285 151.577,322.796 146.963,326.731 145.394 C 328.255 144.787,329.938 144.089,330.471 143.843 C 331.794 143.233,338.279 140.872,341.828 139.708 C 343.428 139.184,345.360 138.517,346.122 138.227 C 346.884 137.937,349.127 137.249,351.108 136.699 C 353.089 136.148,355.519 135.452,356.510 135.150 C 365.400 132.444,379.347 130.538,392.175 130.276 L 400.000 130.116 400.000 65.058 L 400.000 0.000 397.853 0.011 L 395.706 0.022 391.828 5.306 C 381.421 19.487,381.495 19.405,380.229 18.139 C 379.306 17.217,379.686 16.344,382.879 12.050 C 388.825 4.055,391.308 0.690,391.514 0.346 C 391.679 0.073,390.155 0.000,384.253 0.000 L 376.783 0.000 375.806 1.316 C 375.269 2.039,373.437 4.439,371.735 6.648 C 370.033 8.857,368.062 11.425,367.354 12.355 C 366.646 13.284,365.353 14.967,364.480 16.094 C 361.758 19.612,357.653 24.963,355.682 27.562 C 354.643 28.934,353.212 30.803,352.503 31.717 C 351.794 32.632,350.548 34.252,349.736 35.319 C 348.923 36.385,347.060 38.816,345.597 40.720 C 344.134 42.625,341.847 45.616,340.515 47.368 C 332.339 58.126,331.628 58.924,329.257 60.020 C 322.420 63.180,314.559 58.204,314.572 50.723 C 314.577 47.636,315.145 46.376,318.525 41.967 C 319.927 40.139,322.308 37.022,323.816 35.042 C 325.325 33.061,327.530 30.194,328.715 28.670 C 329.901 27.147,331.934 24.506,333.233 22.801 C 334.533 21.097,336.904 18.008,338.504 15.938 C 340.104 13.867,341.911 11.505,342.521 10.689 C 343.130 9.873,344.383 8.224,345.304 7.026 C 346.226 5.828,347.816 3.757,348.838 2.424 L 350.696 -0.000 202.564 0.007 L 54.432 0.015 47.922 7.259 C 44.342 11.244,40.160 15.884,38.629 17.571 C 34.818 21.768,20.803 37.349,18.421 40.036 C 16.743 41.928,10.398 48.952,6.402 53.341 C 5.699 54.113,4.252 55.722,3.186 56.919 C 2.119 58.115,1.060 59.283,0.831 59.513 C 0.462 59.886,0.400 56.598,0.275 29.897 C 0.198 13.378,0.135 62.251,0.136 138.504 M284.506 8.874 C 285.154 9.221,285.218 10.459,284.628 11.232 C 283.651 12.510,279.225 18.493,274.700 24.654 C 270.451 30.438,270.221 30.629,268.928 29.458 C 267.967 28.589,268.396 27.647,271.767 23.235 C 272.160 22.720,273.352 21.115,274.415 19.668 C 283.171 7.747,282.914 8.022,284.506 8.874 M235.390 20.497 C 236.701 21.296,237.394 22.591,237.395 24.246 C 237.396 25.923,238.078 24.862,230.014 35.734 C 228.488 37.791,225.078 42.403,222.437 45.983 C 219.795 49.564,216.194 54.419,214.436 56.774 C 212.677 59.128,210.860 61.586,210.398 62.237 C 206.864 67.207,202.065 73.469,201.597 73.719 C 198.393 75.433,195.014 73.448,195.014 69.850 C 195.014 68.350,194.460 69.193,202.960 57.756 C 204.546 55.623,208.112 50.806,210.885 47.050 C 219.957 34.766,223.357 30.169,226.814 25.507 C 231.046 19.802,232.682 18.846,235.390 20.497 " stroke="none" fill="#fbfbfb" fill-rule="evenodd"></path><path id="path2" d="M0.345 29.709 C 0.281 57.821,0.336 60.305,0.996 59.237 C 1.118 59.039,1.072 58.992,0.875 59.114 C 0.636 59.262,0.539 51.901,0.485 29.586 L 0.413 -0.139 0.345 29.709 M390.400 2.285 C 378.437 18.549,379.419 17.040,380.285 17.824 C 381.302 18.744,381.893 18.413,383.722 15.898 C 384.676 14.586,387.557 10.691,390.124 7.242 C 396.027 -0.691,395.687 0.000,393.696 0.000 L 392.081 0.000 390.400 2.285 M50.260 4.224 L 49.446 5.125 50.346 4.311 C 51.185 3.553,51.374 3.324,51.160 3.324 C 51.112 3.324,50.707 3.729,50.260 4.224 M282.790 8.934 C 282.560 9.124,281.268 10.776,279.919 12.604 C 277.401 16.017,275.660 18.372,271.238 24.345 C 268.719 27.747,268.312 28.698,269.098 29.350 C 270.204 30.268,270.743 29.692,277.701 20.173 C 278.615 18.922,280.578 16.279,282.064 14.298 C 284.897 10.520,285.321 9.458,284.229 8.874 C 283.535 8.503,283.299 8.513,282.790 8.934 M45.273 9.765 L 44.460 10.665 45.360 9.851 C 45.855 9.404,46.260 8.999,46.260 8.951 C 46.260 8.737,46.032 8.925,45.273 9.765 M42.780 12.535 L 41.967 13.435 42.867 12.621 C 43.706 11.863,43.895 11.634,43.681 11.634 C 43.633 11.634,43.228 12.039,42.780 12.535 M231.588 20.415 C 230.511 20.975,229.758 21.877,225.208 28.067 C 221.482 33.133,213.667 43.691,212.458 45.291 C 211.997 45.900,210.106 48.456,208.255 50.970 C 203.911 56.868,200.592 61.352,198.515 64.127 C 194.588 69.375,194.218 71.700,197.036 73.418 C 199.612 74.989,201.425 74.074,204.741 69.529 C 205.686 68.234,207.104 66.302,207.893 65.235 C 209.440 63.143,212.579 58.892,216.483 53.601 C 217.832 51.773,220.740 47.846,222.944 44.875 C 225.149 41.904,227.410 38.850,227.969 38.089 C 228.528 37.327,230.420 34.771,232.173 32.410 C 236.810 26.163,237.121 25.690,237.297 24.605 C 237.770 21.691,234.189 19.063,231.588 20.415 M33.085 23.338 L 32.271 24.238 33.172 23.425 C 33.667 22.977,34.072 22.572,34.072 22.524 C 34.072 22.310,33.843 22.499,33.085 23.338 M30.315 26.385 L 29.501 27.285 30.402 26.472 C 30.897 26.024,31.302 25.619,31.302 25.571 C 31.302 25.357,31.073 25.546,30.315 26.385 M27.822 29.155 L 27.008 30.055 27.909 29.242 C 28.404 28.794,28.809 28.389,28.809 28.342 C 28.809 28.128,28.580 28.316,27.822 29.155 M25.052 32.202 L 24.238 33.102 25.139 32.289 C 25.634 31.841,26.039 31.436,26.039 31.389 C 26.039 31.175,25.810 31.363,25.052 32.202 M12.727 45.914 L 11.773 46.953 12.812 45.998 C 13.383 45.473,13.850 45.006,13.850 44.960 C 13.850 44.748,13.616 44.947,12.727 45.914 M10.093 48.823 L 9.280 49.723 10.180 48.909 C 10.675 48.462,11.080 48.057,11.080 48.009 C 11.080 47.795,10.852 47.984,10.093 48.823 M386.219 130.669 C 386.638 130.733,387.323 130.733,387.742 130.669 C 388.161 130.606,387.819 130.554,386.981 130.554 C 386.143 130.554,385.800 130.606,386.219 130.669 M382.202 130.943 C 382.545 131.009,383.106 131.009,383.449 130.943 C 383.792 130.877,383.511 130.823,382.825 130.823 C 382.140 130.823,381.859 130.877,382.202 130.943 M379.294 131.216 C 379.560 131.286,379.997 131.286,380.263 131.216 C 380.530 131.146,380.312 131.089,379.778 131.089 C 379.245 131.089,379.027 131.146,379.294 131.216 M313.850 151.108 C 313.470 151.326,313.283 151.504,313.435 151.504 C 313.587 151.504,314.024 151.326,314.404 151.108 C 314.785 150.890,314.972 150.712,314.820 150.712 C 314.668 150.712,314.231 150.890,313.850 151.108 M301.385 157.064 C 300.852 157.356,300.515 157.600,300.637 157.606 C 300.931 157.622,302.493 156.809,302.493 156.641 C 302.493 156.460,302.477 156.466,301.385 157.064 M289.958 162.762 C 288.923 163.324,288.986 163.558,290.028 163.019 C 290.485 162.783,290.859 162.531,290.859 162.458 C 290.859 162.280,290.829 162.290,289.958 162.762 M0.412 230.471 C 0.412 256.143,0.445 266.645,0.485 253.809 C 0.525 240.973,0.525 219.969,0.485 207.133 C 0.445 194.297,0.412 204.799,0.412 230.471 M3.878 185.457 C 4.259 185.675,4.695 185.853,4.848 185.853 C 5.000 185.853,4.813 185.675,4.432 185.457 C 4.051 185.239,3.615 185.061,3.463 185.061 C 3.310 185.061,3.497 185.239,3.878 185.457 M245.429 185.873 C 244.896 186.165,244.560 186.409,244.681 186.415 C 244.975 186.430,246.537 185.618,246.537 185.450 C 246.537 185.269,246.521 185.275,245.429 185.873 M17.452 191.551 C 17.832 191.769,18.269 191.947,18.421 191.947 C 18.573 191.947,18.386 191.769,18.006 191.551 C 17.625 191.334,17.188 191.155,17.036 191.155 C 16.884 191.155,17.071 191.334,17.452 191.551 M221.053 197.368 C 220.672 197.586,220.485 197.764,220.637 197.764 C 220.789 197.764,221.226 197.586,221.607 197.368 C 221.988 197.151,222.175 196.973,222.022 196.973 C 221.870 196.973,221.434 197.151,221.053 197.368 M112.399 220.418 C 112.744 220.484,113.243 220.481,113.507 220.412 C 113.772 220.343,113.490 220.288,112.881 220.291 C 112.271 220.295,112.055 220.351,112.399 220.418 M142.729 220.413 C 142.995 220.482,143.431 220.482,143.698 220.413 C 143.965 220.343,143.747 220.286,143.213 220.286 C 142.680 220.286,142.462 220.343,142.729 220.413 M115.166 220.694 C 115.509 220.760,116.070 220.760,116.413 220.694 C 116.756 220.628,116.475 220.574,115.789 220.574 C 115.104 220.574,114.823 220.628,115.166 220.694 M139.543 220.694 C 139.886 220.760,140.447 220.760,140.789 220.694 C 141.132 220.628,140.852 220.574,140.166 220.574 C 139.481 220.574,139.200 220.628,139.543 220.694 M119.321 220.976 C 119.816 221.037,120.627 221.037,121.122 220.976 C 121.617 220.915,121.212 220.864,120.222 220.864 C 119.231 220.864,118.826 220.915,119.321 220.976 M135.116 220.976 C 135.614 221.038,136.362 221.037,136.778 220.974 C 137.194 220.910,136.787 220.860,135.873 220.861 C 134.958 220.863,134.618 220.915,135.116 220.976 M127.071 221.253 C 127.563 221.314,128.436 221.315,129.010 221.255 C 129.585 221.195,129.183 221.145,128.116 221.144 C 127.050 221.142,126.580 221.191,127.071 221.253 " stroke="none" fill="#a4b4ec" fill-rule="evenodd"></path><path id="path3" d="M198.826 74.157 C 199.171 74.223,199.669 74.221,199.934 74.152 C 200.199 74.082,199.917 74.028,199.307 74.031 C 198.698 74.034,198.481 74.091,198.826 74.157 M392.313 130.399 C 393.189 130.454,394.623 130.454,395.499 130.399 C 396.375 130.344,395.658 130.299,393.906 130.299 C 392.154 130.299,391.437 130.344,392.313 130.399 M133.033 220.967 C 133.300 221.036,133.736 221.036,134.003 220.967 C 134.269 220.897,134.051 220.840,133.518 220.840 C 132.985 220.840,132.767 220.897,133.033 220.967 " stroke="none" fill="#aebcee" fill-rule="evenodd"></path><path id="path4" d="M52.617 1.870 L 51.662 2.909 52.701 1.954 C 53.272 1.429,53.740 0.961,53.740 0.915 C 53.740 0.704,53.505 0.903,52.617 1.870 M392.759 3.809 C 391.962 4.771,391.625 5.263,391.761 5.263 C 391.838 5.263,392.234 4.827,392.640 4.294 C 393.395 3.304,393.487 2.931,392.759 3.809 M49.983 4.778 L 49.169 5.679 50.069 4.865 C 50.908 4.107,51.097 3.878,50.883 3.878 C 50.835 3.878,50.430 4.283,49.983 4.778 M386.942 6.579 C 386.145 7.541,385.807 8.033,385.944 8.033 C 386.021 8.033,386.417 7.597,386.823 7.064 C 387.578 6.074,387.669 5.701,386.942 6.579 M47.212 7.825 L 46.399 8.726 47.299 7.912 C 48.138 7.154,48.327 6.925,48.113 6.925 C 48.065 6.925,47.660 7.330,47.212 7.825 M284.619 10.123 C 284.615 10.785,284.707 11.178,284.823 10.996 C 285.095 10.567,285.103 9.211,284.834 9.047 C 284.720 8.977,284.623 9.461,284.619 10.123 M384.055 10.435 C 383.628 10.995,383.420 11.365,383.593 11.258 C 383.948 11.039,385.147 9.418,384.955 9.418 C 384.886 9.418,384.481 9.876,384.055 10.435 M44.583 10.734 L 43.629 11.773 44.668 10.818 C 45.239 10.293,45.706 9.826,45.706 9.779 C 45.706 9.568,45.472 9.767,44.583 10.734 M387.219 11.288 C 386.422 12.250,386.084 12.742,386.221 12.742 C 386.298 12.742,386.694 12.306,387.100 11.773 C 387.855 10.783,387.946 10.410,387.219 11.288 M279.501 12.742 C 279.176 13.199,278.972 13.573,279.048 13.573 C 279.124 13.573,279.453 13.199,279.778 12.742 C 280.104 12.285,280.308 11.911,280.232 11.911 C 280.155 11.911,279.827 12.285,279.501 12.742 M283.341 12.673 C 282.544 13.635,282.206 14.127,282.343 14.127 C 282.420 14.127,282.815 13.691,283.222 13.158 C 283.977 12.168,284.068 11.795,283.341 12.673 M40.287 15.582 L 39.474 16.482 40.374 15.668 C 41.213 14.910,41.402 14.681,41.188 14.681 C 41.140 14.681,40.735 15.087,40.287 15.582 M277.008 16.066 C 276.683 16.524,276.479 16.898,276.555 16.898 C 276.631 16.898,276.960 16.524,277.285 16.066 C 277.611 15.609,277.815 15.235,277.739 15.235 C 277.662 15.235,277.334 15.609,277.008 16.066 M383.501 16.252 C 383.074 16.812,382.866 17.182,383.039 17.075 C 383.394 16.856,384.593 15.235,384.401 15.235 C 384.332 15.235,383.927 15.693,383.501 16.252 M280.135 16.967 C 278.934 18.537,278.301 19.473,278.538 19.330 C 278.865 19.132,280.704 16.620,280.522 16.620 C 280.455 16.620,280.281 16.776,280.135 16.967 M382.249 17.894 C 381.984 18.213,381.607 18.293,380.899 18.179 C 380.217 18.070,380.044 18.102,380.332 18.286 C 381.007 18.716,381.873 18.599,382.410 18.006 C 382.686 17.701,382.845 17.452,382.764 17.452 C 382.683 17.452,382.451 17.651,382.249 17.894 M37.517 18.629 L 36.704 19.529 37.604 18.715 C 38.443 17.957,38.631 17.729,38.417 17.729 C 38.370 17.729,37.965 18.134,37.517 18.629 M273.646 20.706 C 272.849 21.668,272.511 22.161,272.648 22.161 C 272.725 22.161,273.120 21.724,273.527 21.191 C 274.282 20.202,274.373 19.828,273.646 20.706 M276.575 21.793 C 276.149 22.352,275.941 22.722,276.114 22.615 C 276.469 22.396,277.668 20.776,277.476 20.776 C 277.407 20.776,277.002 21.233,276.575 21.793 M271.152 24.030 C 270.356 24.993,270.018 25.485,270.155 25.485 C 270.232 25.485,270.627 25.048,271.034 24.515 C 271.789 23.526,271.880 23.152,271.152 24.030 M227.268 24.840 C 226.841 25.399,226.634 25.769,226.807 25.662 C 227.161 25.443,228.361 23.823,228.168 23.823 C 228.100 23.823,227.695 24.280,227.268 24.840 M274.595 24.446 C 273.394 26.016,272.761 26.953,272.998 26.809 C 273.325 26.612,275.164 24.100,274.982 24.100 C 274.915 24.100,274.741 24.256,274.595 24.446 M235.578 27.887 C 235.152 28.446,234.944 28.816,235.117 28.709 C 235.472 28.490,236.671 26.870,236.478 26.870 C 236.410 26.870,236.005 27.327,235.578 27.887 M268.459 28.281 C 268.359 30.190,270.515 30.446,271.739 28.670 C 271.949 28.366,271.782 28.459,271.368 28.878 C 270.150 30.110,268.913 29.829,268.624 28.255 L 268.496 27.562 268.459 28.281 M224.615 28.463 C 223.818 29.425,223.480 29.917,223.617 29.917 C 223.694 29.917,224.090 29.481,224.496 28.947 C 225.251 27.958,225.343 27.584,224.615 28.463 M234.072 29.917 C 233.747 30.374,233.543 30.748,233.619 30.748 C 233.695 30.748,234.024 30.374,234.349 29.917 C 234.674 29.460,234.878 29.086,234.802 29.086 C 234.726 29.086,234.397 29.460,234.072 29.917 M221.728 32.319 C 221.301 32.878,221.094 33.248,221.266 33.142 C 221.621 32.922,222.820 31.302,222.628 31.302 C 222.559 31.302,222.154 31.760,221.728 32.319 M230.038 35.366 C 229.611 35.925,229.404 36.295,229.577 36.189 C 229.931 35.969,231.131 34.349,230.938 34.349 C 230.870 34.349,230.465 34.807,230.038 35.366 M218.681 36.474 C 218.254 37.033,218.046 37.404,218.219 37.297 C 218.574 37.077,219.773 35.457,219.581 35.457 C 219.512 35.457,219.107 35.915,218.681 36.474 M216.343 39.612 C 216.018 40.069,215.814 40.443,215.890 40.443 C 215.966 40.443,216.295 40.069,216.620 39.612 C 216.946 39.155,217.150 38.781,217.074 38.781 C 216.998 38.781,216.669 39.155,216.343 39.612 M225.011 42.175 C 223.809 43.744,223.176 44.681,223.413 44.538 C 223.740 44.340,225.580 41.828,225.397 41.828 C 225.330 41.828,225.156 41.984,225.011 42.175 M15.221 43.421 L 14.266 44.460 15.305 43.505 C 15.876 42.980,16.343 42.513,16.343 42.466 C 16.343 42.255,16.109 42.454,15.221 43.421 M213.141 43.953 C 212.714 44.513,212.506 44.883,212.679 44.776 C 213.034 44.557,214.233 42.936,214.041 42.936 C 213.972 42.936,213.567 43.394,213.141 43.953 M12.586 46.330 L 11.773 47.230 12.673 46.416 C 13.512 45.658,13.701 45.429,13.487 45.429 C 13.439 45.429,13.034 45.834,12.586 46.330 M210.488 47.576 C 209.691 48.538,209.353 49.030,209.490 49.030 C 209.567 49.030,209.962 48.594,210.369 48.061 C 211.124 47.071,211.215 46.698,210.488 47.576 M314.484 50.554 C 314.486 51.316,314.540 51.595,314.603 51.173 C 314.667 50.752,314.665 50.129,314.599 49.788 C 314.534 49.448,314.482 49.792,314.484 50.554 M218.798 50.623 C 218.001 51.585,217.663 52.078,217.800 52.078 C 217.877 52.078,218.273 51.641,218.679 51.108 C 219.434 50.118,219.525 49.745,218.798 50.623 M215.911 54.480 C 215.484 55.039,215.276 55.409,215.449 55.302 C 215.804 55.083,217.003 53.463,216.811 53.463 C 216.742 53.463,216.337 53.920,215.911 54.480 M203.878 56.510 C 203.553 56.967,203.349 57.341,203.425 57.341 C 203.501 57.341,203.830 56.967,204.155 56.510 C 204.481 56.053,204.685 55.679,204.608 55.679 C 204.532 55.679,204.204 56.053,203.878 56.510 M213.258 58.102 C 212.461 59.065,212.123 59.557,212.260 59.557 C 212.337 59.557,212.732 59.120,213.139 58.587 C 213.894 57.598,213.985 57.224,213.258 58.102 M201.385 59.834 C 200.902 60.443,200.570 60.942,200.646 60.942 C 200.722 60.942,201.179 60.443,201.662 59.834 C 202.145 59.224,202.477 58.726,202.401 58.726 C 202.325 58.726,201.868 59.224,201.385 59.834 M209.878 62.673 C 209.004 63.890,208.975 63.969,209.699 63.158 C 210.514 62.245,211.208 61.219,211.011 61.219 C 210.962 61.219,210.452 61.873,209.878 62.673 M195.716 67.516 C 195.330 68.084,195.022 68.739,195.031 68.970 C 195.041 69.204,195.165 69.101,195.310 68.738 C 195.454 68.380,195.828 67.725,196.143 67.284 C 196.457 66.843,196.647 66.482,196.566 66.482 C 196.485 66.482,196.103 66.947,195.716 67.516 M204.155 70.360 C 203.830 70.817,203.626 71.191,203.702 71.191 C 203.778 71.191,204.107 70.817,204.432 70.360 C 204.758 69.903,204.962 69.529,204.885 69.529 C 204.809 69.529,204.481 69.903,204.155 70.360 M196.321 73.136 C 196.811 73.650,197.259 74.015,197.316 73.947 C 197.374 73.879,196.973 73.458,196.425 73.012 L 195.429 72.201 196.321 73.136 M201.801 73.303 C 201.302 73.727,201.201 73.896,201.546 73.724 C 202.054 73.472,203.007 72.560,202.735 72.586 C 202.678 72.592,202.258 72.914,201.801 73.303 M388.296 130.394 C 388.792 130.456,389.602 130.456,390.097 130.394 C 390.592 130.333,390.187 130.283,389.197 130.283 C 388.206 130.283,387.801 130.333,388.296 130.394 M397.720 130.395 C 398.218 130.456,398.965 130.455,399.382 130.392 C 399.798 130.329,399.391 130.278,398.476 130.280 C 397.562 130.281,397.222 130.333,397.720 130.395 M383.449 130.662 C 383.715 130.732,384.152 130.732,384.418 130.662 C 384.685 130.592,384.467 130.535,383.934 130.535 C 383.400 130.535,383.182 130.592,383.449 130.662 M379.848 130.939 C 380.114 131.009,380.551 131.009,380.817 130.939 C 381.084 130.869,380.866 130.812,380.332 130.812 C 379.799 130.812,379.581 130.869,379.848 130.939 M373.199 131.770 C 373.466 131.840,373.902 131.840,374.169 131.770 C 374.436 131.700,374.217 131.643,373.684 131.643 C 373.151 131.643,372.933 131.700,373.199 131.770 M370.360 132.147 C 369.893 132.305,370.119 132.330,371.053 132.222 C 371.814 132.134,372.490 132.016,372.553 131.959 C 372.771 131.764,371.052 131.911,370.360 132.147 M358.449 134.626 C 357.892 134.804,357.865 134.849,358.310 134.856 C 358.615 134.860,359.114 134.757,359.418 134.626 C 360.124 134.323,359.396 134.323,358.449 134.626 M317.729 149.169 C 317.348 149.387,317.161 149.565,317.313 149.565 C 317.465 149.565,317.902 149.387,318.283 149.169 C 318.663 148.951,318.850 148.773,318.698 148.773 C 318.546 148.773,318.109 148.951,317.729 149.169 M311.357 152.078 C 310.824 152.369,310.512 152.608,310.665 152.608 C 310.817 152.608,311.378 152.369,311.911 152.078 C 312.445 151.786,312.756 151.547,312.604 151.547 C 312.452 151.547,311.891 151.786,311.357 152.078 M299.931 157.499 C 298.857 158.082,298.978 158.283,300.069 157.728 C 301.113 157.197,301.298 157.059,300.946 157.075 C 300.807 157.081,300.350 157.272,299.931 157.499 M283.587 165.809 C 282.552 166.371,282.615 166.605,283.657 166.066 C 284.114 165.830,284.488 165.578,284.488 165.505 C 284.488 165.327,284.458 165.337,283.587 165.809 M278.324 168.578 C 277.600 168.954,277.008 169.325,277.008 169.401 C 277.008 169.476,277.632 169.223,278.393 168.837 C 279.155 168.451,279.778 168.074,279.778 168.001 C 279.778 167.818,279.803 167.808,278.324 168.578 M272.230 171.764 C 271.659 172.066,271.191 172.374,271.191 172.450 C 271.191 172.526,271.690 172.333,272.299 172.022 C 272.909 171.711,273.407 171.397,273.407 171.324 C 273.407 171.143,273.405 171.144,272.230 171.764 M266.413 174.811 C 265.841 175.113,265.374 175.421,265.374 175.497 C 265.374 175.573,265.873 175.380,266.482 175.069 C 267.091 174.758,267.590 174.444,267.590 174.371 C 267.590 174.190,267.588 174.191,266.413 174.811 M255.055 180.768 C 254.020 181.330,254.083 181.564,255.125 181.025 C 255.582 180.789,255.956 180.536,255.956 180.464 C 255.956 180.286,255.926 180.296,255.055 180.768 M1.071 184.083 C 1.583 184.305,2.082 184.483,2.179 184.478 C 2.539 184.458,0.953 183.676,0.554 183.677 C 0.325 183.678,0.558 183.860,1.071 184.083 M7.299 186.735 C 8.190 187.195,8.978 187.514,9.048 187.443 C 9.175 187.316,6.189 185.860,5.853 185.886 C 5.757 185.893,6.408 186.275,7.299 186.735 M14.366 189.929 C 15.792 190.609,17.010 191.116,17.072 191.054 C 17.196 190.929,12.278 188.629,11.969 188.667 C 11.861 188.680,12.940 189.248,14.366 189.929 M237.950 189.335 C 237.265 189.702,236.802 190.008,236.922 190.015 C 237.217 190.032,239.335 188.944,239.335 188.776 C 239.335 188.592,239.347 188.587,237.950 189.335 M19.639 192.270 C 20.919 192.871,22.027 193.301,22.102 193.226 C 22.176 193.151,21.940 192.976,21.576 192.836 C 21.212 192.696,20.182 192.256,19.287 191.858 C 16.770 190.741,17.032 191.046,19.639 192.270 M231.856 192.244 C 231.323 192.536,230.986 192.780,231.108 192.786 C 231.401 192.802,232.964 191.989,232.964 191.821 C 232.964 191.640,232.948 191.646,231.856 192.244 M25.900 194.952 C 26.053 195.093,26.676 195.403,27.285 195.642 C 27.895 195.881,28.861 196.276,29.432 196.519 C 30.003 196.762,30.471 196.898,30.471 196.822 C 30.471 196.681,29.486 196.233,27.008 195.248 C 26.247 194.945,25.748 194.812,25.900 194.952 M225.208 195.291 C 224.675 195.583,224.363 195.822,224.515 195.822 C 224.668 195.822,225.229 195.583,225.762 195.291 C 226.295 194.999,226.607 194.760,226.454 194.760 C 226.302 194.760,225.741 194.999,225.208 195.291 M31.579 197.311 C 31.579 197.506,36.344 199.483,36.482 199.345 C 36.543 199.283,35.643 198.837,34.481 198.353 C 31.655 197.176,31.579 197.149,31.579 197.311 M38.250 200.111 C 38.487 200.339,43.314 202.208,43.412 202.109 C 43.469 202.053,42.386 201.555,41.008 201.003 C 38.666 200.066,37.970 199.841,38.250 200.111 M211.634 201.247 C 211.253 201.464,211.066 201.642,211.219 201.642 C 211.371 201.642,211.807 201.464,212.188 201.247 C 212.569 201.029,212.756 200.851,212.604 200.851 C 212.452 200.851,212.015 201.029,211.634 201.247 M46.012 203.168 C 46.242 203.398,50.518 204.976,50.624 204.870 C 50.682 204.812,49.728 204.378,48.504 203.905 C 46.387 203.089,45.742 202.898,46.012 203.168 M205.125 203.898 C 204.515 204.191,204.328 204.353,204.709 204.258 C 205.493 204.063,206.933 203.341,206.510 203.356 C 206.357 203.361,205.734 203.605,205.125 203.898 M54.309 206.190 C 54.562 206.462,58.232 207.788,58.365 207.656 C 58.432 207.588,57.824 207.288,57.014 206.988 C 55.069 206.267,54.120 205.988,54.309 206.190 M64.782 209.845 C 65.295 210.067,65.856 210.239,66.029 210.227 C 66.466 210.196,64.778 209.444,64.266 209.442 C 64.037 209.441,64.270 209.622,64.782 209.845 M75.473 213.033 C 76.381 213.318,77.172 213.502,77.232 213.442 C 77.360 213.314,74.548 212.454,74.119 212.491 C 73.956 212.505,74.565 212.749,75.473 213.033 M83.795 215.235 C 84.100 215.366,84.598 215.470,84.903 215.465 C 85.348 215.459,85.321 215.414,84.765 215.235 C 83.817 214.932,83.089 214.932,83.795 215.235 M86.842 215.947 C 87.604 216.159,88.414 216.324,88.643 216.313 C 88.871 216.303,88.435 216.121,87.673 215.909 C 86.911 215.697,86.101 215.532,85.873 215.543 C 85.644 215.553,86.080 215.735,86.842 215.947 M98.435 218.290 C 98.870 218.420,99.930 218.592,100.790 218.671 C 102.330 218.813,102.324 218.809,100.416 218.427 C 98.263 217.997,97.216 217.924,98.435 218.290 M156.094 218.283 C 155.348 218.472,155.334 218.495,155.956 218.499 C 156.337 218.502,156.960 218.405,157.341 218.283 C 158.272 217.984,157.266 217.984,156.094 218.283 M153.809 218.751 C 154.075 218.820,154.512 218.820,154.778 218.751 C 155.045 218.681,154.827 218.624,154.294 218.624 C 153.760 218.624,153.542 218.681,153.809 218.751 M114.751 220.413 C 115.017 220.482,115.454 220.482,115.720 220.413 C 115.987 220.343,115.769 220.286,115.235 220.286 C 114.702 220.286,114.484 220.343,114.751 220.413 M118.495 220.699 C 118.993 220.761,119.741 220.760,120.157 220.697 C 120.574 220.633,120.166 220.583,119.252 220.584 C 118.338 220.586,117.997 220.638,118.495 220.699 M136.224 220.699 C 136.722 220.761,137.470 220.760,137.886 220.697 C 138.302 220.633,137.895 220.583,136.981 220.584 C 136.066 220.586,135.726 220.638,136.224 220.699 M125.554 220.982 C 126.887 221.033,129.069 221.033,130.402 220.982 C 131.735 220.931,130.644 220.890,127.978 220.890 C 125.312 220.890,124.221 220.931,125.554 220.982 " stroke="none" fill="#c2cbee" fill-rule="evenodd"></path><path id="path0" d="M0.554 29.640 C 0.554 45.942,0.600 59.280,0.657 59.280 C 0.744 59.280,3.774 55.942,8.172 51.002 C 8.781 50.317,11.773 47.001,14.820 43.632 C 17.867 40.263,21.233 36.521,22.299 35.315 C 23.366 34.110,24.872 32.433,25.648 31.589 C 26.423 30.746,32.716 23.760,39.633 16.066 C 46.549 8.373,52.630 1.610,53.145 1.039 L 54.081 0.000 27.318 0.000 L 0.554 0.000 0.554 29.640 M346.644 5.717 C 344.224 8.861,341.860 11.947,341.390 12.573 C 340.921 13.199,336.122 19.463,330.726 26.493 C 325.329 33.522,319.855 40.656,318.560 42.345 C 315.628 46.169,314.887 47.859,314.901 50.690 C 314.939 58.397,322.862 63.147,329.647 59.531 C 331.814 58.376,331.198 59.118,345.230 40.754 C 346.787 38.716,348.809 36.082,349.723 34.901 C 350.637 33.720,352.660 31.087,354.217 29.050 C 355.775 27.013,359.302 22.417,362.056 18.837 C 364.809 15.256,368.011 11.080,369.172 9.557 C 370.333 8.033,372.455 5.260,373.887 3.393 L 376.492 0.000 363.768 0.000 L 351.045 0.000 346.644 5.717 M385.180 130.777 C 364.948 132.196,344.140 137.906,319.391 148.831 C 311.672 152.238,309.108 153.451,298.753 158.598 C 287.378 164.252,284.548 165.708,266.452 175.228 C 196.065 212.254,153.049 224.963,113.233 220.494 C 102.321 219.269,96.272 218.238,84.626 215.617 C 66.923 211.633,41.084 202.241,13.850 189.892 C 11.946 189.029,8.892 187.659,7.064 186.848 C 5.235 186.037,3.023 185.051,2.147 184.657 L 0.554 183.941 0.554 230.474 L 0.554 277.008 200.278 277.008 L 400.001 277.008 399.931 203.809 L 399.861 130.609 394.183 130.577 C 391.060 130.559,387.008 130.649,385.180 130.777 " stroke="none" fill="#5d7ceb" fill-rule="evenodd"></path><path id="path1" d="M0.136 138.504 C 0.136 214.758,0.169 256.097,0.208 230.370 C 0.275 185.996,0.303 183.600,0.763 183.741 C 1.514 183.973,6.860 186.256,8.864 187.202 C 9.855 187.669,11.818 188.559,13.227 189.178 C 18.277 191.398,20.938 192.579,22.438 193.266 C 23.276 193.650,25.021 194.402,26.316 194.938 C 27.611 195.473,29.169 196.138,29.778 196.416 C 30.875 196.915,31.662 197.239,40.305 200.738 C 47.426 203.621,56.180 206.832,61.773 208.612 C 63.677 209.218,66.108 210.019,67.175 210.392 C 77.012 213.829,96.853 218.248,108.839 219.672 C 122.682 221.316,144.087 220.915,153.047 218.843 C 153.657 218.702,156.399 218.193,159.141 217.711 C 164.040 216.850,175.138 214.177,179.224 212.872 C 180.367 212.508,182.548 211.842,184.072 211.392 C 191.985 209.057,210.801 201.946,217.867 198.622 C 218.476 198.335,220.097 197.606,221.468 197.001 C 232.385 192.186,247.305 184.936,259.557 178.494 C 262.375 177.011,266.053 175.086,267.729 174.215 C 269.404 173.345,272.583 171.672,274.792 170.499 C 283.809 165.710,300.753 157.133,306.787 154.304 C 308.463 153.518,310.145 152.711,310.526 152.509 C 312.285 151.577,322.796 146.963,326.731 145.394 C 328.255 144.787,329.938 144.089,330.471 143.843 C 331.794 143.233,338.279 140.872,341.828 139.708 C 343.428 139.184,345.360 138.517,346.122 138.227 C 346.884 137.937,349.127 137.249,351.108 136.699 C 353.089 136.148,355.519 135.452,356.510 135.150 C 365.400 132.444,379.347 130.538,392.175 130.276 L 400.000 130.116 400.000 65.058 L 400.000 0.000 397.853 0.011 L 395.706 0.022 391.828 5.306 C 381.421 19.487,381.495 19.405,380.229 18.139 C 379.306 17.217,379.686 16.344,382.879 12.050 C 388.825 4.055,391.308 0.690,391.514 0.346 C 391.679 0.073,390.155 0.000,384.253 0.000 L 376.783 0.000 375.806 1.316 C 375.269 2.039,373.437 4.439,371.735 6.648 C 370.033 8.857,368.062 11.425,367.354 12.355 C 366.646 13.284,365.353 14.967,364.480 16.094 C 361.758 19.612,357.653 24.963,355.682 27.562 C 354.643 28.934,353.212 30.803,352.503 31.717 C 351.794 32.632,350.548 34.252,349.736 35.319 C 348.923 36.385,347.060 38.816,345.597 40.720 C 344.134 42.625,341.847 45.616,340.515 47.368 C 332.339 58.126,331.628 58.924,329.257 60.020 C 322.420 63.180,314.559 58.204,314.572 50.723 C 314.577 47.636,315.145 46.376,318.525 41.967 C 319.927 40.139,322.308 37.022,323.816 35.042 C 325.325 33.061,327.530 30.194,328.715 28.670 C 329.901 27.147,331.934 24.506,333.233 22.801 C 334.533 21.097,336.904 18.008,338.504 15.938 C 340.104 13.867,341.911 11.505,342.521 10.689 C 343.130 9.873,344.383 8.224,345.304 7.026 C 346.226 5.828,347.816 3.757,348.838 2.424 L 350.696 -0.000 202.564 0.007 L 54.432 0.015 47.922 7.259 C 44.342 11.244,40.160 15.884,38.629 17.571 C 34.818 21.768,20.803 37.349,18.421 40.036 C 16.743 41.928,10.398 48.952,6.402 53.341 C 5.699 54.113,4.252 55.722,3.186 56.919 C 2.119 58.115,1.060 59.283,0.831 59.513 C 0.462 59.886,0.400 56.598,0.275 29.897 C 0.198 13.378,0.135 62.251,0.136 138.504 M284.506 8.874 C 285.154 9.221,285.218 10.459,284.628 11.232 C 283.651 12.510,279.225 18.493,274.700 24.654 C 270.451 30.438,270.221 30.629,268.928 29.458 C 267.967 28.589,268.396 27.647,271.767 23.235 C 272.160 22.720,273.352 21.115,274.415 19.668 C 283.171 7.747,282.914 8.022,284.506 8.874 M235.390 20.497 C 236.701 21.296,237.394 22.591,237.395 24.246 C 237.396 25.923,238.078 24.862,230.014 35.734 C 228.488 37.791,225.078 42.403,222.437 45.983 C 219.795 49.564,216.194 54.419,214.436 56.774 C 212.677 59.128,210.860 61.586,210.398 62.237 C 206.864 67.207,202.065 73.469,201.597 73.719 C 198.393 75.433,195.014 73.448,195.014 69.850 C 195.014 68.350,194.460 69.193,202.960 57.756 C 204.546 55.623,208.112 50.806,210.885 47.050 C 219.957 34.766,223.357 30.169,226.814 25.507 C 231.046 19.802,232.682 18.846,235.390 20.497 " stroke="none" fill="#fbfbfb" fill-rule="evenodd"></path><path id="path2" d="M0.345 29.709 C 0.281 57.821,0.336 60.305,0.996 59.237 C 1.118 59.039,1.072 58.992,0.875 59.114 C 0.636 59.262,0.539 51.901,0.485 29.586 L 0.413 -0.139 0.345 29.709 M390.400 2.285 C 378.437 18.549,379.419 17.040,380.285 17.824 C 381.302 18.744,381.893 18.413,383.722 15.898 C 384.676 14.586,387.557 10.691,390.124 7.242 C 396.027 -0.691,395.687 0.000,393.696 0.000 L 392.081 0.000 390.400 2.285 M50.260 4.224 L 49.446 5.125 50.346 4.311 C 51.185 3.553,51.374 3.324,51.160 3.324 C 51.112 3.324,50.707 3.729,50.260 4.224 M282.790 8.934 C 282.560 9.124,281.268 10.776,279.919 12.604 C 277.401 16.017,275.660 18.372,271.238 24.345 C 268.719 27.747,268.312 28.698,269.098 29.350 C 270.204 30.268,270.743 29.692,277.701 20.173 C 278.615 18.922,280.578 16.279,282.064 14.298 C 284.897 10.520,285.321 9.458,284.229 8.874 C 283.535 8.503,283.299 8.513,282.790 8.934 M45.273 9.765 L 44.460 10.665 45.360 9.851 C 45.855 9.404,46.260 8.999,46.260 8.951 C 46.260 8.737,46.032 8.925,45.273 9.765 M42.780 12.535 L 41.967 13.435 42.867 12.621 C 43.706 11.863,43.895 11.634,43.681 11.634 C 43.633 11.634,43.228 12.039,42.780 12.535 M231.588 20.415 C 230.511 20.975,229.758 21.877,225.208 28.067 C 221.482 33.133,213.667 43.691,212.458 45.291 C 211.997 45.900,210.106 48.456,208.255 50.970 C 203.911 56.868,200.592 61.352,198.515 64.127 C 194.588 69.375,194.218 71.700,197.036 73.418 C 199.612 74.989,201.425 74.074,204.741 69.529 C 205.686 68.234,207.104 66.302,207.893 65.235 C 209.440 63.143,212.579 58.892,216.483 53.601 C 217.832 51.773,220.740 47.846,222.944 44.875 C 225.149 41.904,227.410 38.850,227.969 38.089 C 228.528 37.327,230.420 34.771,232.173 32.410 C 236.810 26.163,237.121 25.690,237.297 24.605 C 237.770 21.691,234.189 19.063,231.588 20.415 M33.085 23.338 L 32.271 24.238 33.172 23.425 C 33.667 22.977,34.072 22.572,34.072 22.524 C 34.072 22.310,33.843 22.499,33.085 23.338 M30.315 26.385 L 29.501 27.285 30.402 26.472 C 30.897 26.024,31.302 25.619,31.302 25.571 C 31.302 25.357,31.073 25.546,30.315 26.385 M27.822 29.155 L 27.008 30.055 27.909 29.242 C 28.404 28.794,28.809 28.389,28.809 28.342 C 28.809 28.128,28.580 28.316,27.822 29.155 M25.052 32.202 L 24.238 33.102 25.139 32.289 C 25.634 31.841,26.039 31.436,26.039 31.389 C 26.039 31.175,25.810 31.363,25.052 32.202 M12.727 45.914 L 11.773 46.953 12.812 45.998 C 13.383 45.473,13.850 45.006,13.850 44.960 C 13.850 44.748,13.616 44.947,12.727 45.914 M10.093 48.823 L 9.280 49.723 10.180 48.909 C 10.675 48.462,11.080 48.057,11.080 48.009 C 11.080 47.795,10.852 47.984,10.093 48.823 M386.219 130.669 C 386.638 130.733,387.323 130.733,387.742 130.669 C 388.161 130.606,387.819 130.554,386.981 130.554 C 386.143 130.554,385.800 130.606,386.219 130.669 M382.202 130.943 C 382.545 131.009,383.106 131.009,383.449 130.943 C 383.792 130.877,383.511 130.823,382.825 130.823 C 382.140 130.823,381.859 130.877,382.202 130.943 M379.294 131.216 C 379.560 131.286,379.997 131.286,380.263 131.216 C 380.530 131.146,380.312 131.089,379.778 131.089 C 379.245 131.089,379.027 131.146,379.294 131.216 M313.850 151.108 C 313.470 151.326,313.283 151.504,313.435 151.504 C 313.587 151.504,314.024 151.326,314.404 151.108 C 314.785 150.890,314.972 150.712,314.820 150.712 C 314.668 150.712,314.231 150.890,313.850 151.108 M301.385 157.064 C 300.852 157.356,300.515 157.600,300.637 157.606 C 300.931 157.622,302.493 156.809,302.493 156.641 C 302.493 156.460,302.477 156.466,301.385 157.064 M289.958 162.762 C 288.923 163.324,288.986 163.558,290.028 163.019 C 290.485 162.783,290.859 162.531,290.859 162.458 C 290.859 162.280,290.829 162.290,289.958 162.762 M0.412 230.471 C 0.412 256.143,0.445 266.645,0.485 253.809 C 0.525 240.973,0.525 219.969,0.485 207.133 C 0.445 194.297,0.412 204.799,0.412 230.471 M3.878 185.457 C 4.259 185.675,4.695 185.853,4.848 185.853 C 5.000 185.853,4.813 185.675,4.432 185.457 C 4.051 185.239,3.615 185.061,3.463 185.061 C 3.310 185.061,3.497 185.239,3.878 185.457 M245.429 185.873 C 244.896 186.165,244.560 186.409,244.681 186.415 C 244.975 186.430,246.537 185.618,246.537 185.450 C 246.537 185.269,246.521 185.275,245.429 185.873 M17.452 191.551 C 17.832 191.769,18.269 191.947,18.421 191.947 C 18.573 191.947,18.386 191.769,18.006 191.551 C 17.625 191.334,17.188 191.155,17.036 191.155 C 16.884 191.155,17.071 191.334,17.452 191.551 M221.053 197.368 C 220.672 197.586,220.485 197.764,220.637 197.764 C 220.789 197.764,221.226 197.586,221.607 197.368 C 221.988 197.151,222.175 196.973,222.022 196.973 C 221.870 196.973,221.434 197.151,221.053 197.368 M112.399 220.418 C 112.744 220.484,113.243 220.481,113.507 220.412 C 113.772 220.343,113.490 220.288,112.881 220.291 C 112.271 220.295,112.055 220.351,112.399 220.418 M142.729 220.413 C 142.995 220.482,143.431 220.482,143.698 220.413 C 143.965 220.343,143.747 220.286,143.213 220.286 C 142.680 220.286,142.462 220.343,142.729 220.413 M115.166 220.694 C 115.509 220.760,116.070 220.760,116.413 220.694 C 116.756 220.628,116.475 220.574,115.789 220.574 C 115.104 220.574,114.823 220.628,115.166 220.694 M139.543 220.694 C 139.886 220.760,140.447 220.760,140.789 220.694 C 141.132 220.628,140.852 220.574,140.166 220.574 C 139.481 220.574,139.200 220.628,139.543 220.694 M119.321 220.976 C 119.816 221.037,120.627 221.037,121.122 220.976 C 121.617 220.915,121.212 220.864,120.222 220.864 C 119.231 220.864,118.826 220.915,119.321 220.976 M135.116 220.976 C 135.614 221.038,136.362 221.037,136.778 220.974 C 137.194 220.910,136.787 220.860,135.873 220.861 C 134.958 220.863,134.618 220.915,135.116 220.976 M127.071 221.253 C 127.563 221.314,128.436 221.315,129.010 221.255 C 129.585 221.195,129.183 221.145,128.116 221.144 C 127.050 221.142,126.580 221.191,127.071 221.253 " stroke="none" fill="#a4b4ec" fill-rule="evenodd"></path><path id="path3" d="M198.826 74.157 C 199.171 74.223,199.669 74.221,199.934 74.152 C 200.199 74.082,199.917 74.028,199.307 74.031 C 198.698 74.034,198.481 74.091,198.826 74.157 M392.313 130.399 C 393.189 130.454,394.623 130.454,395.499 130.399 C 396.375 130.344,395.658 130.299,393.906 130.299 C 392.154 130.299,391.437 130.344,392.313 130.399 M133.033 220.967 C 133.300 221.036,133.736 221.036,134.003 220.967 C 134.269 220.897,134.051 220.840,133.518 220.840 C 132.985 220.840,132.767 220.897,133.033 220.967 " stroke="none" fill="#aebcee" fill-rule="evenodd"></path><path id="path4" d="M52.617 1.870 L 51.662 2.909 52.701 1.954 C 53.272 1.429,53.740 0.961,53.740 0.915 C 53.740 0.704,53.505 0.903,52.617 1.870 M392.759 3.809 C 391.962 4.771,391.625 5.263,391.761 5.263 C 391.838 5.263,392.234 4.827,392.640 4.294 C 393.395 3.304,393.487 2.931,392.759 3.809 M49.983 4.778 L 49.169 5.679 50.069 4.865 C 50.908 4.107,51.097 3.878,50.883 3.878 C 50.835 3.878,50.430 4.283,49.983 4.778 M386.942 6.579 C 386.145 7.541,385.807 8.033,385.944 8.033 C 386.021 8.033,386.417 7.597,386.823 7.064 C 387.578 6.074,387.669 5.701,386.942 6.579 M47.212 7.825 L 46.399 8.726 47.299 7.912 C 48.138 7.154,48.327 6.925,48.113 6.925 C 48.065 6.925,47.660 7.330,47.212 7.825 M284.619 10.123 C 284.615 10.785,284.707 11.178,284.823 10.996 C 285.095 10.567,285.103 9.211,284.834 9.047 C 284.720 8.977,284.623 9.461,284.619 10.123 M384.055 10.435 C 383.628 10.995,383.420 11.365,383.593 11.258 C 383.948 11.039,385.147 9.418,384.955 9.418 C 384.886 9.418,384.481 9.876,384.055 10.435 M44.583 10.734 L 43.629 11.773 44.668 10.818 C 45.239 10.293,45.706 9.826,45.706 9.779 C 45.706 9.568,45.472 9.767,44.583 10.734 M387.219 11.288 C 386.422 12.250,386.084 12.742,386.221 12.742 C 386.298 12.742,386.694 12.306,387.100 11.773 C 387.855 10.783,387.946 10.410,387.219 11.288 M279.501 12.742 C 279.176 13.199,278.972 13.573,279.048 13.573 C 279.124 13.573,279.453 13.199,279.778 12.742 C 280.104 12.285,280.308 11.911,280.232 11.911 C 280.155 11.911,279.827 12.285,279.501 12.742 M283.341 12.673 C 282.544 13.635,282.206 14.127,282.343 14.127 C 282.420 14.127,282.815 13.691,283.222 13.158 C 283.977 12.168,284.068 11.795,283.341 12.673 M40.287 15.582 L 39.474 16.482 40.374 15.668 C 41.213 14.910,41.402 14.681,41.188 14.681 C 41.140 14.681,40.735 15.087,40.287 15.582 M277.008 16.066 C 276.683 16.524,276.479 16.898,276.555 16.898 C 276.631 16.898,276.960 16.524,277.285 16.066 C 277.611 15.609,277.815 15.235,277.739 15.235 C 277.662 15.235,277.334 15.609,277.008 16.066 M383.501 16.252 C 383.074 16.812,382.866 17.182,383.039 17.075 C 383.394 16.856,384.593 15.235,384.401 15.235 C 384.332 15.235,383.927 15.693,383.501 16.252 M280.135 16.967 C 278.934 18.537,278.301 19.473,278.538 19.330 C 278.865 19.132,280.704 16.620,280.522 16.620 C 280.455 16.620,280.281 16.776,280.135 16.967 M382.249 17.894 C 381.984 18.213,381.607 18.293,380.899 18.179 C 380.217 18.070,380.044 18.102,380.332 18.286 C 381.007 18.716,381.873 18.599,382.410 18.006 C 382.686 17.701,382.845 17.452,382.764 17.452 C 382.683 17.452,382.451 17.651,382.249 17.894 M37.517 18.629 L 36.704 19.529 37.604 18.715 C 38.443 17.957,38.631 17.729,38.417 17.729 C 38.370 17.729,37.965 18.134,37.517 18.629 M273.646 20.706 C 272.849 21.668,272.511 22.161,272.648 22.161 C 272.725 22.161,273.120 21.724,273.527 21.191 C 274.282 20.202,274.373 19.828,273.646 20.706 M276.575 21.793 C 276.149 22.352,275.941 22.722,276.114 22.615 C 276.469 22.396,277.668 20.776,277.476 20.776 C 277.407 20.776,277.002 21.233,276.575 21.793 M271.152 24.030 C 270.356 24.993,270.018 25.485,270.155 25.485 C 270.232 25.485,270.627 25.048,271.034 24.515 C 271.789 23.526,271.880 23.152,271.152 24.030 M227.268 24.840 C 226.841 25.399,226.634 25.769,226.807 25.662 C 227.161 25.443,228.361 23.823,228.168 23.823 C 228.100 23.823,227.695 24.280,227.268 24.840 M274.595 24.446 C 273.394 26.016,272.761 26.953,272.998 26.809 C 273.325 26.612,275.164 24.100,274.982 24.100 C 274.915 24.100,274.741 24.256,274.595 24.446 M235.578 27.887 C 235.152 28.446,234.944 28.816,235.117 28.709 C 235.472 28.490,236.671 26.870,236.478 26.870 C 236.410 26.870,236.005 27.327,235.578 27.887 M268.459 28.281 C 268.359 30.190,270.515 30.446,271.739 28.670 C 271.949 28.366,271.782 28.459,271.368 28.878 C 270.150 30.110,268.913 29.829,268.624 28.255 L 268.496 27.562 268.459 28.281 M224.615 28.463 C 223.818 29.425,223.480 29.917,223.617 29.917 C 223.694 29.917,224.090 29.481,224.496 28.947 C 225.251 27.958,225.343 27.584,224.615 28.463 M234.072 29.917 C 233.747 30.374,233.543 30.748,233.619 30.748 C 233.695 30.748,234.024 30.374,234.349 29.917 C 234.674 29.460,234.878 29.086,234.802 29.086 C 234.726 29.086,234.397 29.460,234.072 29.917 M221.728 32.319 C 221.301 32.878,221.094 33.248,221.266 33.142 C 221.621 32.922,222.820 31.302,222.628 31.302 C 222.559 31.302,222.154 31.760,221.728 32.319 M230.038 35.366 C 229.611 35.925,229.404 36.295,229.577 36.189 C 229.931 35.969,231.131 34.349,230.938 34.349 C 230.870 34.349,230.465 34.807,230.038 35.366 M218.681 36.474 C 218.254 37.033,218.046 37.404,218.219 37.297 C 218.574 37.077,219.773 35.457,219.581 35.457 C 219.512 35.457,219.107 35.915,218.681 36.474 M216.343 39.612 C 216.018 40.069,215.814 40.443,215.890 40.443 C 215.966 40.443,216.295 40.069,216.620 39.612 C 216.946 39.155,217.150 38.781,217.074 38.781 C 216.998 38.781,216.669 39.155,216.343 39.612 M225.011 42.175 C 223.809 43.744,223.176 44.681,223.413 44.538 C 223.740 44.340,225.580 41.828,225.397 41.828 C 225.330 41.828,225.156 41.984,225.011 42.175 M15.221 43.421 L 14.266 44.460 15.305 43.505 C 15.876 42.980,16.343 42.513,16.343 42.466 C 16.343 42.255,16.109 42.454,15.221 43.421 M213.141 43.953 C 212.714 44.513,212.506 44.883,212.679 44.776 C 213.034 44.557,214.233 42.936,214.041 42.936 C 213.972 42.936,213.567 43.394,213.141 43.953 M12.586 46.330 L 11.773 47.230 12.673 46.416 C 13.512 45.658,13.701 45.429,13.487 45.429 C 13.439 45.429,13.034 45.834,12.586 46.330 M210.488 47.576 C 209.691 48.538,209.353 49.030,209.490 49.030 C 209.567 49.030,209.962 48.594,210.369 48.061 C 211.124 47.071,211.215 46.698,210.488 47.576 M314.484 50.554 C 314.486 51.316,314.540 51.595,314.603 51.173 C 314.667 50.752,314.665 50.129,314.599 49.788 C 314.534 49.448,314.482 49.792,314.484 50.554 M218.798 50.623 C 218.001 51.585,217.663 52.078,217.800 52.078 C 217.877 52.078,218.273 51.641,218.679 51.108 C 219.434 50.118,219.525 49.745,218.798 50.623 M215.911 54.480 C 215.484 55.039,215.276 55.409,215.449 55.302 C 215.804 55.083,217.003 53.463,216.811 53.463 C 216.742 53.463,216.337 53.920,215.911 54.480 M203.878 56.510 C 203.553 56.967,203.349 57.341,203.425 57.341 C 203.501 57.341,203.830 56.967,204.155 56.510 C 204.481 56.053,204.685 55.679,204.608 55.679 C 204.532 55.679,204.204 56.053,203.878 56.510 M213.258 58.102 C 212.461 59.065,212.123 59.557,212.260 59.557 C 212.337 59.557,212.732 59.120,213.139 58.587 C 213.894 57.598,213.985 57.224,213.258 58.102 M201.385 59.834 C 200.902 60.443,200.570 60.942,200.646 60.942 C 200.722 60.942,201.179 60.443,201.662 59.834 C 202.145 59.224,202.477 58.726,202.401 58.726 C 202.325 58.726,201.868 59.224,201.385 59.834 M209.878 62.673 C 209.004 63.890,208.975 63.969,209.699 63.158 C 210.514 62.245,211.208 61.219,211.011 61.219 C 210.962 61.219,210.452 61.873,209.878 62.673 M195.716 67.516 C 195.330 68.084,195.022 68.739,195.031 68.970 C 195.041 69.204,195.165 69.101,195.310 68.738 C 195.454 68.380,195.828 67.725,196.143 67.284 C 196.457 66.843,196.647 66.482,196.566 66.482 C 196.485 66.482,196.103 66.947,195.716 67.516 M204.155 70.360 C 203.830 70.817,203.626 71.191,203.702 71.191 C 203.778 71.191,204.107 70.817,204.432 70.360 C 204.758 69.903,204.962 69.529,204.885 69.529 C 204.809 69.529,204.481 69.903,204.155 70.360 M196.321 73.136 C 196.811 73.650,197.259 74.015,197.316 73.947 C 197.374 73.879,196.973 73.458,196.425 73.012 L 195.429 72.201 196.321 73.136 M201.801 73.303 C 201.302 73.727,201.201 73.896,201.546 73.724 C 202.054 73.472,203.007 72.560,202.735 72.586 C 202.678 72.592,202.258 72.914,201.801 73.303 M388.296 130.394 C 388.792 130.456,389.602 130.456,390.097 130.394 C 390.592 130.333,390.187 130.283,389.197 130.283 C 388.206 130.283,387.801 130.333,388.296 130.394 M397.720 130.395 C 398.218 130.456,398.965 130.455,399.382 130.392 C 399.798 130.329,399.391 130.278,398.476 130.280 C 397.562 130.281,397.222 130.333,397.720 130.395 M383.449 130.662 C 383.715 130.732,384.152 130.732,384.418 130.662 C 384.685 130.592,384.467 130.535,383.934 130.535 C 383.400 130.535,383.182 130.592,383.449 130.662 M379.848 130.939 C 380.114 131.009,380.551 131.009,380.817 130.939 C 381.084 130.869,380.866 130.812,380.332 130.812 C 379.799 130.812,379.581 130.869,379.848 130.939 M373.199 131.770 C 373.466 131.840,373.902 131.840,374.169 131.770 C 374.436 131.700,374.217 131.643,373.684 131.643 C 373.151 131.643,372.933 131.700,373.199 131.770 M370.360 132.147 C 369.893 132.305,370.119 132.330,371.053 132.222 C 371.814 132.134,372.490 132.016,372.553 131.959 C 372.771 131.764,371.052 131.911,370.360 132.147 M358.449 134.626 C 357.892 134.804,357.865 134.849,358.310 134.856 C 358.615 134.860,359.114 134.757,359.418 134.626 C 360.124 134.323,359.396 134.323,358.449 134.626 M317.729 149.169 C 317.348 149.387,317.161 149.565,317.313 149.565 C 317.465 149.565,317.902 149.387,318.283 149.169 C 318.663 148.951,318.850 148.773,318.698 148.773 C 318.546 148.773,318.109 148.951,317.729 149.169 M311.357 152.078 C 310.824 152.369,310.512 152.608,310.665 152.608 C 310.817 152.608,311.378 152.369,311.911 152.078 C 312.445 151.786,312.756 151.547,312.604 151.547 C 312.452 151.547,311.891 151.786,311.357 152.078 M299.931 157.499 C 298.857 158.082,298.978 158.283,300.069 157.728 C 301.113 157.197,301.298 157.059,300.946 157.075 C 300.807 157.081,300.350 157.272,299.931 157.499 M283.587 165.809 C 282.552 166.371,282.615 166.605,283.657 166.066 C 284.114 165.830,284.488 165.578,284.488 165.505 C 284.488 165.327,284.458 165.337,283.587 165.809 M278.324 168.578 C 277.600 168.954,277.008 169.325,277.008 169.401 C 277.008 169.476,277.632 169.223,278.393 168.837 C 279.155 168.451,279.778 168.074,279.778 168.001 C 279.778 167.818,279.803 167.808,278.324 168.578 M272.230 171.764 C 271.659 172.066,271.191 172.374,271.191 172.450 C 271.191 172.526,271.690 172.333,272.299 172.022 C 272.909 171.711,273.407 171.397,273.407 171.324 C 273.407 171.143,273.405 171.144,272.230 171.764 M266.413 174.811 C 265.841 175.113,265.374 175.421,265.374 175.497 C 265.374 175.573,265.873 175.380,266.482 175.069 C 267.091 174.758,267.590 174.444,267.590 174.371 C 267.590 174.190,267.588 174.191,266.413 174.811 M255.055 180.768 C 254.020 181.330,254.083 181.564,255.125 181.025 C 255.582 180.789,255.956 180.536,255.956 180.464 C 255.956 180.286,255.926 180.296,255.055 180.768 M1.071 184.083 C 1.583 184.305,2.082 184.483,2.179 184.478 C 2.539 184.458,0.953 183.676,0.554 183.677 C 0.325 183.678,0.558 183.860,1.071 184.083 M7.299 186.735 C 8.190 187.195,8.978 187.514,9.048 187.443 C 9.175 187.316,6.189 185.860,5.853 185.886 C 5.757 185.893,6.408 186.275,7.299 186.735 M14.366 189.929 C 15.792 190.609,17.010 191.116,17.072 191.054 C 17.196 190.929,12.278 188.629,11.969 188.667 C 11.861 188.680,12.940 189.248,14.366 189.929 M237.950 189.335 C 237.265 189.702,236.802 190.008,236.922 190.015 C 237.217 190.032,239.335 188.944,239.335 188.776 C 239.335 188.592,239.347 188.587,237.950 189.335 M19.639 192.270 C 20.919 192.871,22.027 193.301,22.102 193.226 C 22.176 193.151,21.940 192.976,21.576 192.836 C 21.212 192.696,20.182 192.256,19.287 191.858 C 16.770 190.741,17.032 191.046,19.639 192.270 M231.856 192.244 C 231.323 192.536,230.986 192.780,231.108 192.786 C 231.401 192.802,232.964 191.989,232.964 191.821 C 232.964 191.640,232.948 191.646,231.856 192.244 M25.900 194.952 C 26.053 195.093,26.676 195.403,27.285 195.642 C 27.895 195.881,28.861 196.276,29.432 196.519 C 30.003 196.762,30.471 196.898,30.471 196.822 C 30.471 196.681,29.486 196.233,27.008 195.248 C 26.247 194.945,25.748 194.812,25.900 194.952 M225.208 195.291 C 224.675 195.583,224.363 195.822,224.515 195.822 C 224.668 195.822,225.229 195.583,225.762 195.291 C 226.295 194.999,226.607 194.760,226.454 194.760 C 226.302 194.760,225.741 194.999,225.208 195.291 M31.579 197.311 C 31.579 197.506,36.344 199.483,36.482 199.345 C 36.543 199.283,35.643 198.837,34.481 198.353 C 31.655 197.176,31.579 197.149,31.579 197.311 M38.250 200.111 C 38.487 200.339,43.314 202.208,43.412 202.109 C 43.469 202.053,42.386 201.555,41.008 201.003 C 38.666 200.066,37.970 199.841,38.250 200.111 M211.634 201.247 C 211.253 201.464,211.066 201.642,211.219 201.642 C 211.371 201.642,211.807 201.464,212.188 201.247 C 212.569 201.029,212.756 200.851,212.604 200.851 C 212.452 200.851,212.015 201.029,211.634 201.247 M46.012 203.168 C 46.242 203.398,50.518 204.976,50.624 204.870 C 50.682 204.812,49.728 204.378,48.504 203.905 C 46.387 203.089,45.742 202.898,46.012 203.168 M205.125 203.898 C 204.515 204.191,204.328 204.353,204.709 204.258 C 205.493 204.063,206.933 203.341,206.510 203.356 C 206.357 203.361,205.734 203.605,205.125 203.898 M54.309 206.190 C 54.562 206.462,58.232 207.788,58.365 207.656 C 58.432 207.588,57.824 207.288,57.014 206.988 C 55.069 206.267,54.120 205.988,54.309 206.190 M64.782 209.845 C 65.295 210.067,65.856 210.239,66.029 210.227 C 66.466 210.196,64.778 209.444,64.266 209.442 C 64.037 209.441,64.270 209.622,64.782 209.845 M75.473 213.033 C 76.381 213.318,77.172 213.502,77.232 213.442 C 77.360 213.314,74.548 212.454,74.119 212.491 C 73.956 212.505,74.565 212.749,75.473 213.033 M83.795 215.235 C 84.100 215.366,84.598 215.470,84.903 215.465 C 85.348 215.459,85.321 215.414,84.765 215.235 C 83.817 214.932,83.089 214.932,83.795 215.235 M86.842 215.947 C 87.604 216.159,88.414 216.324,88.643 216.313 C 88.871 216.303,88.435 216.121,87.673 215.909 C 86.911 215.697,86.101 215.532,85.873 215.543 C 85.644 215.553,86.080 215.735,86.842 215.947 M98.435 218.290 C 98.870 218.420,99.930 218.592,100.790 218.671 C 102.330 218.813,102.324 218.809,100.416 218.427 C 98.263 217.997,97.216 217.924,98.435 218.290 M156.094 218.283 C 155.348 218.472,155.334 218.495,155.956 218.499 C 156.337 218.502,156.960 218.405,157.341 218.283 C 158.272 217.984,157.266 217.984,156.094 218.283 M153.809 218.751 C 154.075 218.820,154.512 218.820,154.778 218.751 C 155.045 218.681,154.827 218.624,154.294 218.624 C 153.760 218.624,153.542 218.681,153.809 218.751 M114.751 220.413 C 115.017 220.482,115.454 220.482,115.720 220.413 C 115.987 220.343,115.769 220.286,115.235 220.286 C 114.702 220.286,114.484 220.343,114.751 220.413 M118.495 220.699 C 118.993 220.761,119.741 220.760,120.157 220.697 C 120.574 220.633,120.166 220.583,119.252 220.584 C 118.338 220.586,117.997 220.638,118.495 220.699 M136.224 220.699 C 136.722 220.761,137.470 220.760,137.886 220.697 C 138.302 220.633,137.895 220.583,136.981 220.584 C 136.066 220.586,135.726 220.638,136.224 220.699 M125.554 220.982 C 126.887 221.033,129.069 221.033,130.402 220.982 C 131.735 220.931,130.644 220.890,127.978 220.890 C 125.312 220.890,124.221 220.931,125.554 220.982 " stroke="none" fill="#c2cbee" fill-rule="evenodd"></path></g></svg>